<?xml version="1.0" standalone="no"?>
<!DOCTYPE svg PUBLIC "-//W3C//DTD SVG 20010904//EN"
 "http://www.w3.org/TR/2001/REC-SVG-20010904/DTD/svg10.dtd">
<svg version="1.0" xmlns="http://www.w3.org/2000/svg"
 width="1188.000000pt" height="240.000000pt" viewBox="0 0 1188.000000 240.000000"
 preserveAspectRatio="xMidYMid meet">

<g transform="translate(0.000000,240.000000) scale(0.100000,-0.100000)"
fill="#000000" stroke="none">
<path d="M1458 2093 c12 -2 32 -2 45 0 12 2 2 4 -23 4 -25 0 -35 -2 -22 -4z"/>
<path d="M1798 2093 c25 -5 28 -13 10 -33 -7 -7 -1 -5 13 6 33 23 28 34 -14
33 -24 -1 -26 -3 -9 -6z"/>
<path d="M1623 1275 c0 -44 2 -61 4 -37 2 23 2 59 0 80 -2 20 -4 1 -4 -43z"/>
<path d="M1701 1258 c0 -49 3 -88 7 -88 4 0 6 33 4 73 -5 107 -10 114 -11 15z"/>
<path d="M1901 1283 c7 -12 15 -20 18 -17 3 2 -3 12 -13 22 -17 16 -18 16 -5
-5z"/>
<path d="M1297 1267 c-11 -29 -9 -53 4 -40 6 6 9 21 7 34 -3 21 -4 22 -11 6z"/>
<path d="M1250 1088 c0 -21 2 -38 4 -38 9 0 12 50 5 62 -6 8 -9 -1 -9 -24z"/>
<path d="M1017 1058 c-20 -63 -38 -160 -30 -168 8 -8 171 -13 208 -6 37 7 40
14 49 91 5 47 4 48 -5 15 -6 -19 -15 -41 -21 -47 -12 -15 -115 -17 -152 -3
-24 9 -25 14 -28 92 l-3 83 -18 -57z"/>
<path d="M2074 1088 c3 -13 11 -61 18 -108 7 -47 17 -88 23 -92 5 -4 44 -7 85
-7 l75 2 -67 7 c-37 5 -71 11 -76 14 -6 3 -13 27 -16 53 -12 86 -29 153 -39
153 -5 0 -7 -10 -3 -22z"/>
<path d="M1349 1086 c-15 -12 -17 -93 -5 -158 8 -45 18 -48 173 -48 l122 0 -6
88 c-7 100 -13 120 -13 41 0 -107 -17 -119 -134 -98 -88 15 -111 41 -101 114
3 27 11 52 17 56 5 3 -1 8 -15 11 -13 3 -31 0 -38 -6z"/>
<path d="M1700 1000 c0 -40 4 -70 10 -70 6 0 10 -7 10 -15 0 -9 12 -20 26 -25
33 -13 231 -13 239 0 3 6 17 10 30 10 17 0 23 4 19 15 -5 11 -10 12 -27 4 -28
-16 -240 -7 -261 10 -11 9 -16 30 -16 61 0 53 -7 80 -21 80 -5 0 -9 -31 -9
-70z"/>
<path d="M1070 803 c-70 -24 -77 -31 -74 -75 2 -25 21 -78 44 -124 l41 -81 72
28 c40 16 80 28 91 29 16 0 18 5 12 38 -3 20 -9 65 -13 100 l-6 62 -36 0 c-20
1 -54 7 -76 15 -22 8 -40 14 -40 14 0 0 -7 -3 -15 -6z"/>
<path d="M2143 803 c15 -2 39 -2 55 0 15 2 2 4 -28 4 -30 0 -43 -2 -27 -4z"/>
<path d="M2099 764 c0 -21 -6 -72 -13 -111 -7 -40 -11 -73 -9 -73 21 0 49 198
30 217 -4 3 -7 -11 -8 -33z"/>
<path d="M1558 773 c7 -3 16 -2 19 1 4 3 -2 6 -13 5 -11 0 -14 -3 -6 -6z"/>
<path d="M1347 763 c-4 -3 -7 -39 -7 -78 0 -54 4 -76 16 -86 10 -8 60 -14 150
-17 l134 -5 -1 34 c-1 35 -16 102 -18 83 -1 -13 -71 -47 -71 -35 0 6 -9 13
-21 16 -15 5 -19 13 -16 27 3 11 -1 31 -10 44 -14 21 -23 24 -82 24 -37 0 -71
-3 -74 -7z"/>
<path d="M1706 723 c-3 -21 -6 -62 -6 -90 l0 -53 43 0 c71 0 78 13 29 58 -36
34 -42 44 -42 80 0 52 -15 55 -24 5z"/>
<path d="M1528 482 l-87 -3 12 -32 c27 -72 60 -116 99 -132 21 -8 50 -15 63
-15 25 0 25 1 25 89 0 63 -4 90 -12 92 -7 2 -52 3 -100 1z"/>
<path d="M1926 473 c-3 -10 -8 -23 -11 -28 -3 -6 4 -11 15 -11 11 0 20 6 20
12 0 7 3 19 6 28 4 10 1 16 -9 16 -8 0 -17 -8 -21 -17z"/>
<path d="M1197 470 c-62 -12 -62 -21 -3 -86 52 -57 154 -124 189 -124 25 0 29
17 9 37 -34 33 -62 81 -66 111 -1 16 -13 39 -25 51 -22 22 -40 24 -104 11z"/>
<path d="M1704 464 c3 -9 6 -49 6 -90 0 -72 1 -74 25 -74 44 0 94 32 66 42 -6
2 -13 30 -16 63 -4 33 -9 63 -11 67 -3 5 -21 8 -41 8 -28 0 -34 -3 -29 -16z"/>
<path d="M2010 382 c0 -9 -16 -41 -36 -70 -20 -30 -33 -56 -30 -59 11 -11 56
28 62 55 3 15 10 40 15 56 11 36 11 36 -1 36 -5 0 -10 -8 -10 -18z"/>
</g>
</svg>
